<svg id="Capa_1" data-name="Capa 1" xmlns="http://www.w3.org/2000/svg" xmlns:xlink="http://www.w3.org/1999/xlink" viewBox="0 0 12 16"><defs><style>.cls-1{fill:url(#Nueva_muestra_de_degradado_1);}</style><linearGradient id="Nueva_muestra_de_degradado_1" x1="-1.47" y1="12.42" x2="13.47" y2="3.58" gradientUnits="userSpaceOnUse"><stop offset="0" stop-color="#f0ef45"/><stop offset="0.01" stop-color="#efef45"/><stop offset="0.27" stop-color="#aed82c"/><stop offset="0.51" stop-color="#7ac619"/><stop offset="0.72" stop-color="#55b90c"/><stop offset="0.89" stop-color="#3eb103"/><stop offset="1" stop-color="#36ae00"/></linearGradient></defs><path class="cls-1" d="M1.5,0A1.5,1.5,0,0,0,0,1.5v13A1.5,1.5,0,0,0,1.5,16h3V13.5a1.5,1.5,0,0,1,3,0V16h3A1.5,1.5,0,0,0,12,14.5V1.5A1.5,1.5,0,0,0,10.5,0ZM2,7.5A.5.5,0,0,1,2.5,7h1a.5.5,0,0,1,.5.5v1a.5.5,0,0,1-.5.5h-1A.5.5,0,0,1,2,8.5ZM5.5,7h1a.5.5,0,0,1,.5.5v1a.5.5,0,0,1-.5.5h-1A.5.5,0,0,1,5,8.5v-1A.5.5,0,0,1,5.5,7ZM8,7.5A.5.5,0,0,1,8.5,7h1a.5.5,0,0,1,.5.5v1a.51.51,0,0,1-.5.5h-1A.51.51,0,0,1,8,8.5ZM2.5,3h1a.5.5,0,0,1,.5.5v1a.5.5,0,0,1-.5.5h-1A.5.5,0,0,1,2,4.5v-1A.5.5,0,0,1,2.5,3ZM5,3.5A.5.5,0,0,1,5.5,3h1a.5.5,0,0,1,.5.5v1a.5.5,0,0,1-.5.5h-1A.5.5,0,0,1,5,4.5ZM8.5,3h1a.5.5,0,0,1,.5.5v1a.5.5,0,0,1-.5.5h-1A.5.5,0,0,1,8,4.5v-1A.5.5,0,0,1,8.5,3Z"/></svg>