<svg id="Capa_1" data-name="Capa 1" xmlns="http://www.w3.org/2000/svg" xmlns:xlink="http://www.w3.org/1999/xlink" viewBox="0 0 20 14"><defs><style>.cls-1{fill:url(#Nueva_muestra_de_degradado_1);}</style><linearGradient id="Nueva_muestra_de_degradado_1" x1="1.6" y1="12.29" x2="19.37" y2="3.11" gradientUnits="userSpaceOnUse"><stop offset="0" stop-color="#f0ef45"/><stop offset="0.01" stop-color="#efef45"/><stop offset="0.27" stop-color="#aed82c"/><stop offset="0.51" stop-color="#7ac619"/><stop offset="0.72" stop-color="#55b90c"/><stop offset="0.89" stop-color="#3eb103"/><stop offset="1" stop-color="#36ae00"/></linearGradient></defs><path class="cls-1" d="M10,1a2.1,2.1,0,0,0-.74.13L.49,4.29a.76.76,0,0,0,0,1.42l1.81.65a5.17,5.17,0,0,0-.8,2.76V10a5.88,5.88,0,0,1-.7,2.52A7.8,7.8,0,0,1,.1,13.7a.51.51,0,0,0,.28.79l2,.5a.54.54,0,0,0,.39-.06A.57.57,0,0,0,3,14.6a8,8,0,0,0-.07-3.4A6.89,6.89,0,0,0,2.5,9.89V9.12a4.2,4.2,0,0,1,.87-2.55A3.91,3.91,0,0,1,4.91,5.46L9.82,3.53a.5.5,0,0,1,.36.93L5.28,6.39a2.79,2.79,0,0,0-1,.67l5,1.8A2,2,0,0,0,10,9a2.1,2.1,0,0,0,.74-.13l8.77-3.15a.76.76,0,0,0,0-1.42L10.74,1.13A2.1,2.1,0,0,0,10,1ZM4,12.75C4,13.85,6.69,15,10,15s6-1.15,6-2.25l-.48-4.54-4.44,1.6a3.16,3.16,0,0,1-2.16,0L4.48,8.21Z" transform="translate(0 -1)"/></svg>