<svg id="Capa_1" data-name="Capa 1" xmlns="http://www.w3.org/2000/svg" xmlns:xlink="http://www.w3.org/1999/xlink" viewBox="0 0 16 13.5"><defs><style>.cls-1{fill:url(#Degradado_sin_nombre_7);}</style><linearGradient id="Degradado_sin_nombre_7" x1="2.87" y1="13.97" x2="12.26" y2="3.12" gradientUnits="userSpaceOnUse"><stop offset="0" stop-color="#f0ef45"/><stop offset="0.63" stop-color="#78c518"/><stop offset="1" stop-color="#36ae00"/></linearGradient></defs><path class="cls-1" d="M4.75,1.19a.75.75,0,0,1,.06,1.06L2.56,4.75A.71.71,0,0,1,2,5a.77.77,0,0,1-.55-.22L.22,3.53a.75.75,0,0,1,0-1.06.74.74,0,0,1,1.06,0L2,3.16,3.69,1.25a.75.75,0,0,1,1.06-.06Zm0,5a.75.75,0,0,1,.06,1.06L2.56,9.75A.71.71,0,0,1,2,10a.77.77,0,0,1-.55-.22L.22,8.53A.75.75,0,0,1,1.28,7.47L2,8.16,3.69,6.25a.76.76,0,0,1,1.06-.06ZM7,3A1,1,0,0,1,8,2h7a1,1,0,0,1,0,2H8A1,1,0,0,1,7,3ZM7,8A1,1,0,0,1,8,7h7a1,1,0,0,1,0,2H8A1,1,0,0,1,7,8ZM5,13a1,1,0,0,1,1-1h9a1,1,0,0,1,0,2H6A1,1,0,0,1,5,13ZM1.5,11.5A1.5,1.5,0,1,1,0,13,1.5,1.5,0,0,1,1.5,11.5Z" transform="translate(0 -1)"/></svg>