<svg xmlns="http://www.w3.org/2000/svg" viewBox="0 0 192.79 85.22"><g id="Capa_2" data-name="Capa 2"><path d="M140.4,5.35h34.47A19.16,19.16,0,0,1,189.09,11q5.17,5.22,5.18,13.93a16.07,16.07,0,0,1-11.21,15.67,20.62,20.62,0,0,1,8.19,4.79,17.81,17.81,0,0,1,5.17,13.06A22,22,0,0,1,190,74.57q-5.18,5.22-15.52,5.22h-34Zm9.91,8.27V36.69h23.27a10,10,0,0,0,7.33-3,12.46,12.46,0,0,0,3.44-9.14,11.42,11.42,0,0,0-3.44-8.28,8.74,8.74,0,0,0-6.47-2.61Zm0,31.35V71.52h22c4.31,0,7.61-1.15,9.91-3.48a13.07,13.07,0,0,0,3.88-9.58q0-6.09-3.45-9.58Q178.75,45,172.29,45Z" transform="translate(-3.63 -1.88)"/><path d="M136.5,29.26H126.16A18.21,18.21,0,0,0,121,17.07c-3.16-3.18-7.46-4.79-12.92-4.79a18.63,18.63,0,0,0-13.79,5.66q-7.48,7.57-7.74,23.26a7,7,0,0,0-.69-.21c-1.45-.39-2.9-.79-4.34-1.2v-3a1.86,1.86,0,0,0-1.66-2.07c-1-.23-2.09-.47-3.15-.68q1.74-13.2,9.4-20.93a29.78,29.78,0,0,1,22-9.14Q121,4,129.18,12.28A24.85,24.85,0,0,1,136.5,29.26Z" transform="translate(-3.63 -1.88)"/><path d="M137.83,41.91V80.22H130.5l-2.57-7.41q-7.34,7.41-18.54,7.41-13.14,0-21.58-7.91A40.75,40.75,0,0,0,91,61.6l0-.21a24.33,24.33,0,0,0,3.75,4.89q5.58,5.67,15.5,5.66a16.23,16.23,0,0,0,12.07-4.79,18.75,18.75,0,0,0,5.61-10v-7H115.42V41.91Z" transform="translate(-3.63 -1.88)"/></g><g id="Capa_4" data-name="Capa 4"><path d="M42.53,37.41a3.51,3.51,0,1,1-3.48,3.52A3.47,3.47,0,0,1,42.53,37.41Z" transform="translate(-3.63 -1.88)"/><path d="M79.89,34.74c-1-.24-2.09-.47-3.15-.69l-2.3-.48a.78.78,0,0,1-.72-.7,30.13,30.13,0,0,0-3.54-8.49.72.72,0,0,1,0-.89c1-1.5,2-3,3-4.55a1.94,1.94,0,0,0-.28-2.85l-5.64-5.64a1.92,1.92,0,0,0-2.79-.29c-1.52,1-3,2-4.54,3a.74.74,0,0,1-1,0,29.73,29.73,0,0,0-8.48-3.52A.77.77,0,0,1,49.87,9c-.32-1.67-.72-3.34-1-5a2.49,2.49,0,0,0-1.49-2.09H37.78A2.6,2.6,0,0,0,36.3,4.06c-.3,1.65-.7,3.3-1,5a.71.71,0,0,1-.6.66,31.81,31.81,0,0,0-8.61,3.57.9.9,0,0,1-.75-.05c-1.55-1-3.08-2-4.61-3a2,2,0,0,0-2.85.29l-5.64,5.64a1.93,1.93,0,0,0-.31,2.79l3,4.63a.66.66,0,0,1,0,.82A30,30,0,0,0,11.39,33a.7.7,0,0,1-.65.62c-1.66.33-3.32.73-5,1a2.58,2.58,0,0,0-2.11,1.47v9.59a2.53,2.53,0,0,0,2.11,1.47c1.68.3,3.34.7,5,1a.75.75,0,0,1,.7.65A30.51,30.51,0,0,0,15,57.38a.68.68,0,0,1,0,.87c-1,1.49-2,3-3,4.49a2,2,0,0,0,.28,2.9q2.79,2.82,5.6,5.6a1.92,1.92,0,0,0,2.83.32c1.55-1,3.1-2,4.63-3a.65.65,0,0,1,.82,0,30.55,30.55,0,0,0,8.49,3.54.79.79,0,0,1,.67.69c.35,1.84.74,3.69,1.14,5.52a1.84,1.84,0,0,0,1.93,1.58c2.81,0,5.62,0,8.45,0a1.79,1.79,0,0,0,1.9-1.52c.2-.85.4-1.72.54-2.6a1.49,1.49,0,0,0-.14-.85c-.91-1.89-1.84-3.77-2.74-5.68-.17-.36-.3-.48-.72-.43a26.32,26.32,0,0,1-8.72-.41A28.07,28.07,0,1,1,70.22,36.06a.89.89,0,0,0,.54.58c1.85.59,3.72,1.12,5.58,1.64v0l.15,0c1.66.49,3.31,1,5.05,1.46v-3A1.85,1.85,0,0,0,79.89,34.74Z" transform="translate(-3.63 -1.88)"/><path d="M86.57,43.55l-.21-.07L76.24,40.53c-2.58-.75-5.15-1.48-7.74-2.21a4.05,4.05,0,0,0-2.13,0c-5.9,1.67-11.78,3.4-17.67,5.12a3,3,0,0,0-2.48,3.34c0,1.72,0,3.45,0,5.18a74.22,74.22,0,0,0,.21,8.18c1.38,12,7.55,20.62,18.29,26,.67.34,1.35.63,2,.94h1.33c.08,0,.15-.1.23-.13a32.39,32.39,0,0,0,20.38-30v-.57c0-3.26,0-6.5,0-9.76A2.91,2.91,0,0,0,86.57,43.55ZM87.7,53.61c-.19,2.92,0,5.88-.54,8.73a34.48,34.48,0,0,1-2.08,7.06c-3.1,7.47-8.74,13-16.76,16.48a2.48,2.48,0,0,1-1.78,0C56.31,81.4,50,73.67,47.77,62.71a37.92,37.92,0,0,1-.55-6.21c-.08-3.28,0-6.57,0-9.85a2,2,0,0,1,1.64-2.23l17.79-5.16a3.29,3.29,0,0,1,1.62,0l8,2.3,9.69,2.82a3.43,3.43,0,0,1,.69.26c.81.38,1.09,1,1.09,2.09v6.18h0C87.68,53.15,87.7,53.39,87.7,53.61Z" transform="translate(-3.63 -1.88)"/><path d="M45.08,65.65A24.87,24.87,0,1,1,66.89,35.92l-4.3,1.21c-2.32-9.2-8.08-14.65-17.49-16.44v.79c0,3.72,0,7.45,0,11.18a.74.74,0,0,0,.53.83A7.81,7.81,0,0,1,50,37.89a.69.69,0,0,0,.77.52c2.37,0,4.74,0,7.13.08l-.59.2c-2.06.6-4.12,1.2-6.18,1.82-.21.07-.38.29-.58.43s-.39.34-.51.29a.78.78,0,0,1-.42-.5c-.1-.42-.08-.88-.17-1.31a7,7,0,1,0-5.8,8.49,2.59,2.59,0,0,1,.83.18c-.1.25-.21.5-.3.75a1.33,1.33,0,0,0-.12.42c.08,3.84.09,7.67.27,11.5A42,42,0,0,0,45.08,65.65Zm-5-44.83c-9.27,1-16.74,8.92-17.54,17.53.11,0,.21,0,.32,0,3.9,0,7.8,0,11.69,0,.42,0,.51-.23.63-.53a7.89,7.89,0,0,1,4.33-4.36.83.83,0,0,0,.58-.93c0-3,0-6.08,0-9.12Zm0,40.2v-.79c0-3.5,0-7,0-10.5a1.42,1.42,0,0,0-1-1.61,7.61,7.61,0,0,1-1.92-1.29A7.76,7.76,0,0,1,35,43.49H22.52A20.15,20.15,0,0,0,40.05,61Z" transform="translate(-3.63 -1.88)"/><path d="M84.81,47.82c0-.53-.18-.71-.66-.86-2.64-.76-5.28-1.52-7.9-2.29L67.9,42.26a1.72,1.72,0,0,0-.9,0C61.57,43.82,56.13,45.42,50.7,47c-.5.15-.6.39-.6.85,0,3,0,6,0,9A32.18,32.18,0,0,0,50.55,62c1.87,9.8,7.39,16.78,16.45,20.94a1.27,1.27,0,0,0,.86,0A27.53,27.53,0,0,0,83,66.74,31.61,31.61,0,0,0,84.15,63a36,36,0,0,0,.64-8.65C84.79,51.67,84.77,49.74,84.81,47.82ZM76,58.07a3.43,3.43,0,0,1-.42.58q-4.26,5-8.48,10.07a1.81,1.81,0,0,1-3,.25c-1.61-1.34-3.2-2.67-4.79-4a1.72,1.72,0,0,1-.08-2.72,1.7,1.7,0,0,1,2.3.08c1.25,1,2.48,2.06,3.76,3.13l.5-.56c2.36-2.81,4.73-5.63,7.13-8.42a2.85,2.85,0,0,1,1.35-.84,1.45,1.45,0,0,1,1.55.68A1.67,1.67,0,0,1,76,58.07Z" transform="translate(-3.63 -1.88)"/></g></svg>