<svg id="Capa_1" data-name="Capa 1" xmlns="http://www.w3.org/2000/svg" xmlns:xlink="http://www.w3.org/1999/xlink" viewBox="0 0 14 16"><defs><style>.cls-1{fill:url(#Degradado_sin_nombre_742);}</style><linearGradient id="Degradado_sin_nombre_742" x1="4.1" y1="16.06" x2="11.82" y2="2.69" gradientUnits="userSpaceOnUse"><stop offset="0" stop-color="#f0ef45"/><stop offset="0.22" stop-color="#bcdd32"/><stop offset="0.48" stop-color="#83c91c"/><stop offset="0.71" stop-color="#59ba0d"/><stop offset="0.89" stop-color="#3fb104"/><stop offset="1" stop-color="#36ae00"/></linearGradient></defs><path class="cls-1" d="M6.58.18,1.94,5.29a.73.73,0,0,0-.19.49.72.72,0,0,0,.72.72h.78L1,8.79a.75.75,0,0,0-.21.5.71.71,0,0,0,.71.71h1L.17,12.8a.71.71,0,0,0-.17.47A.73.73,0,0,0,.73,14H6v1a1,1,0,0,0,2,0V14h5.27a.73.73,0,0,0,.73-.73.71.71,0,0,0-.17-.47L11.5,10h1a.71.71,0,0,0,.71-.71.7.7,0,0,0-.21-.5L10.75,6.5h.78a.72.72,0,0,0,.72-.72.73.73,0,0,0-.19-.49L7.42.18a.58.58,0,0,0-.84,0Z"/></svg>